<?xml version="1.0" encoding="UTF-8" standalone="no"?>
<!-- Created with Inkscape (http://www.inkscape.org/) -->

<svg
   xmlns:rdf="http://www.w3.org/1999/02/22-rdf-syntax-ns#"
   xmlns:svg="http://www.w3.org/2000/svg"
   xmlns="http://www.w3.org/2000/svg"
   width="24"
   height="24"
   viewBox="0 0 853.59755 853.59663">
  <g
     transform="translate(-85.201708,0.13229166)">
    <path
       class="gryph-draw"
       d="m 725.333,469.332 v 256 c 0,11.776 -4.736,22.4 -12.501,30.165 -7.765,7.765 -18.389,12.501 -30.165,12.501 H 213.334 c -11.776,0 -22.4,-4.736 -30.165,-12.501 -7.765,-7.765 -12.501,-18.389 -12.501,-30.165 V 255.999 c 0,-11.776 4.736,-22.4 12.501,-30.165 7.765,-7.765 18.389,-12.501 30.165,-12.501 h 256 c 23.552,0 42.667,-19.115 42.667,-42.667 0,-23.552 -19.115,-42.667 -42.667,-42.667 h -256 c -35.328,0 -67.413,14.379 -90.496,37.504 -23.083,23.125 -37.504,55.168 -37.504,90.496 v 469.333 c 0,35.328 14.379,67.413 37.504,90.496 23.125,23.083 55.168,37.504 90.496,37.504 h 469.333 c 35.328,0 67.413,-14.379 90.496,-37.504 23.083,-23.125 37.504,-55.168 37.504,-90.496 v -256 c 0,-23.552 -19.115,-42.667 -42.667,-42.667 -23.552,0 -42.667,19.115 -42.667,42.667 z M 456.832,542.164 853.333,145.663 v 153.003 c 0,23.552 19.115,42.667 42.667,42.667 23.552,0 42.667,-19.115 42.667,-42.667 v -256 c 0,-5.803 -1.152,-11.307 -3.243,-16.341 -2.091,-5.034 -5.163,-9.728 -9.216,-13.781 -0.043,-0.043 -0.043,-0.043 -0.085,-0.085 C 922.198,8.534 917.504,5.376 912.342,3.243 907.307,1.152 901.803,0 896.001,0 h -256 c -23.552,0 -42.667,19.115 -42.667,42.667 0,23.552 19.115,42.667 42.667,42.667 H 793.004 L 396.503,481.835 c -16.683,16.683 -16.683,43.691 0,60.331 16.683,16.64 43.691,16.683 60.331,0 z"/>
  </g>
</svg>
